<svg width="302" height="43" viewBox="0 0 302 43" fill="none" xmlns="http://www.w3.org/2000/svg">
<path d="M33.5493 26.3026L33.6575 27.8671C33.6575 28.0829 33.4952 28.2987 33.2787 28.3527C32.6294 28.4606 31.7095 28.6224 31.1684 28.6224C28.3546 28.6224 27.4888 27.5434 27.4888 23.9827V18.5878H26.4065C26.136 18.5878 25.9195 18.372 25.9195 18.1022V16.4837C25.9195 16.214 26.136 15.9982 26.4065 15.9982H27.4888V14.1099C27.4888 13.8941 27.6511 13.7323 27.8676 13.6783L29.7615 13.2467C29.9238 13.1928 30.032 13.2467 30.1403 13.3546C30.2485 13.4625 30.3026 13.5704 30.3026 13.7323V16.1061H33.1705C33.4411 16.1061 33.6575 16.3219 33.6575 16.5916V18.2101C33.6575 18.4799 33.4411 18.6957 33.1705 18.6957H30.3026V23.713C30.3026 25.4394 30.3567 26.0328 31.6013 26.0328C32.0342 26.0328 32.7376 25.9789 33.1164 25.9789C33.3328 25.871 33.5493 26.0868 33.5493 26.3026ZM24.675 22.1484C24.675 26.6263 22.9975 28.6224 19.1556 28.6224C15.3136 28.6224 13.6362 26.6263 13.6362 22.1484C13.6362 17.7785 15.3677 15.7824 19.1556 15.7824C22.9434 15.7824 24.675 17.7785 24.675 22.1484ZM21.8612 22.1484C21.8612 19.397 21.1036 18.318 19.2097 18.318C17.2075 18.318 16.5041 19.2891 16.5041 22.1484C16.5041 24.6841 16.937 26.0868 19.2097 26.0868C21.4283 26.0328 21.8612 24.6301 21.8612 22.1484ZM66.6116 16.2679C66.5033 16.16 66.3951 16.1061 66.2328 16.1061H64.393C64.1765 16.1061 64.0142 16.2679 63.9601 16.4298L61.5251 25.6012H61.3627L58.9277 16.4298C58.8736 16.214 58.7113 16.1061 58.4948 16.1061H56.655C56.4927 16.1061 56.3845 16.16 56.2762 16.2679C56.168 16.3758 56.168 16.5377 56.168 16.6456L58.8736 26.95C58.9818 27.4355 59.4688 28.2987 60.4428 28.2987H60.984C60.9298 28.4606 60.8757 28.6763 60.8216 28.8382V28.8921C60.6593 29.3777 60.4428 30.079 59.1442 30.079L56.8173 29.9172C56.7091 29.9172 56.5468 29.9711 56.4386 30.0251C56.3303 30.133 56.2762 30.2409 56.2762 30.4027L56.3303 31.5896C56.3303 31.8054 56.4927 31.9673 56.7091 32.0212C57.4126 32.1831 58.7113 32.3989 59.7935 32.4528C59.8476 32.4528 59.9017 32.4528 59.9558 32.4528C61.6874 32.4528 62.8779 31.3199 63.4731 29.1079C64.1765 26.5184 65.0423 23.1195 65.6917 20.6918C65.9622 19.6128 66.2328 18.6417 66.3951 17.9404L66.7198 16.5916C66.7198 16.4837 66.6657 16.3758 66.6116 16.2679ZM11.9587 27.6513C12.0128 27.8132 12.0128 27.975 11.9046 28.0829C11.7964 28.1908 11.6881 28.2987 11.5258 28.2987H9.36133C9.199 28.2987 8.98255 28.1908 8.92844 28.029L6.11463 21.7708C4.70772 21.7708 3.51726 21.6629 2.86792 21.6629V27.8671C2.86792 28.1369 2.65148 28.3527 2.38092 28.3527H0.487006C0.216447 28.2987 0 28.0829 0 27.8671V12.1677C0 11.9519 0.162335 11.7361 0.432894 11.6822C2.92203 11.4124 4.92417 11.3585 5.68173 11.3585C5.95229 11.3585 6.06052 11.3585 6.06052 11.3585C10.8765 11.3585 11.8505 14.1639 11.8505 16.5377C11.8505 18.5338 10.9306 19.9365 8.98255 20.9076L11.9587 27.6513ZM6.06052 14.056H5.03239C3.89605 14.056 3.24671 14.1639 2.92203 14.2178V19.0733C3.46315 19.1273 4.54539 19.1812 5.95229 19.1272C7.79209 19.1272 8.92844 18.1562 8.92844 16.5916C8.87433 15.4047 8.11676 14.056 6.06052 14.056ZM45.021 19.9365V28.029C45.021 28.1908 44.9669 28.2987 44.8586 28.4066C44.7504 28.5145 44.6422 28.5145 44.4799 28.5145C43.5059 28.3527 43.073 28.0829 42.6401 27.7592C42.6401 27.7592 40.5297 28.6224 38.6358 28.6224C36.3631 28.6224 35.0644 27.2197 35.0644 24.6841C35.0644 22.2563 36.2549 21.1773 39.1769 20.9615L42.2072 20.6918V19.9365C42.2072 19.0194 41.666 18.4799 40.692 18.4799C39.3392 18.4799 37.4453 18.6417 36.4172 18.7496C36.309 18.7496 36.1467 18.7496 36.0384 18.6417C35.9302 18.5338 35.8761 18.4259 35.8761 18.318L35.822 16.7535C35.822 16.5377 35.9843 16.3219 36.2008 16.2679C37.1207 16.1061 39.3934 15.7824 40.8003 15.7824C43.6682 15.7824 45.021 17.0772 45.021 19.9365ZM39.5016 23.0116C38.4193 23.1195 37.8782 23.6051 37.8782 24.5762C37.8782 25.1696 38.0406 26.1947 39.1228 26.1947C40.4215 26.1947 42.2072 25.7091 42.2072 25.7091V22.9037L39.5016 23.0116ZM54.1118 15.9982C52.8672 16.0521 51.6767 16.7535 50.9192 17.293V16.5377C50.9192 16.2679 50.7027 16.0521 50.4322 16.0521H48.5382C48.2677 16.0521 48.0512 16.2679 48.0512 16.5377V27.8671C48.0512 28.1369 48.2677 28.3527 48.5382 28.3527H50.4322C50.7027 28.3527 50.9192 28.1369 50.9192 27.8671V20.0444C51.3521 19.6667 52.6507 18.6957 54.22 18.5878C54.4364 18.5878 54.6529 18.372 54.6529 18.1022V16.4298C54.6529 16.3219 54.5988 16.16 54.4905 16.1061C54.3823 15.9982 54.22 15.9442 54.1118 15.9982Z" fill="#0050A2"/>
<path d="M115.209 20.9346V20.8807H115.155C114.229 20.3422 113.032 20.0191 111.834 19.9652C111.834 19.8037 111.671 18.7267 111.671 18.5651C112.814 18.242 113.903 17.6497 114.665 16.8419L114.719 16.788V16.7342C114.665 16.3034 114.502 15.711 114.338 15.3879V15.3341H114.284C113.25 15.0648 111.998 15.0648 110.855 15.3341C110.8 15.1725 110.365 14.2032 110.31 14.0416C111.344 13.4493 112.215 12.5877 112.76 11.6183L112.814 11.5645V11.5106C112.651 11.1337 112.379 10.649 112.107 10.3259L112.052 10.2721H111.998C110.909 10.2721 109.711 10.5952 108.677 11.1337C108.568 11.026 107.915 10.1105 107.806 10.0028C108.623 9.1412 109.276 8.11803 109.548 7.04101V6.98716L109.494 6.93331C109.222 6.61021 108.841 6.1794 108.514 5.91014L108.459 5.85629H108.405C107.371 6.12555 106.282 6.71791 105.411 7.57952C105.302 7.47182 104.377 6.77176 104.268 6.66406C104.812 5.69474 105.193 4.51002 105.193 3.48685C105.193 3.433 105.193 3.3253 105.193 3.3253L105.139 3.27145C104.812 3.00219 104.268 2.73294 103.887 2.57138H103.778C102.853 3.10989 101.982 3.97151 101.383 4.94083C101.22 4.88698 100.131 4.45617 100.022 4.34847C100.185 3.80996 100.24 3.2176 100.24 2.62523C100.24 2.03287 100.185 1.49436 100.022 0.955855V0.902004H99.9678C99.5867 0.740451 99.0424 0.578898 98.6069 0.525047H98.5525L98.498 0.578898C97.736 1.33281 97.0828 2.40983 96.7561 3.5407C96.5928 3.5407 95.4497 3.37915 95.2864 3.37915C95.2864 2.19443 94.9598 1.00971 94.4155 0.0942392L94.3611 0.0403882H94.3066C93.9256 -0.0134627 93.2724 -0.0134627 92.8913 0.0403882H92.8369L92.7825 0.0942392C92.2381 1.00971 91.9115 2.19443 91.9115 3.37915C91.7482 3.37915 90.6051 3.5407 90.4418 3.5407C90.1152 2.40983 89.5164 1.33281 88.6999 0.578898H88.4822C88.0467 0.632749 87.5023 0.794302 87.1213 0.955855H87.0669V1.00971C86.9036 1.54822 86.8491 2.14058 86.8491 2.67909C86.8491 3.27145 86.958 3.80996 87.0669 4.40232C86.9036 4.45617 85.8149 4.94083 85.706 4.99468C85.1072 3.97151 84.2363 3.10989 83.2565 2.57138L83.2021 2.51753H83.1476C82.7666 2.67909 82.2767 2.94834 81.9501 3.2176L81.8956 3.27145C81.8956 3.27145 81.8956 3.37915 81.8956 3.433C81.8956 4.45617 82.2222 5.64089 82.7666 6.61021C82.6577 6.71791 81.8412 7.36412 81.6779 7.47182C80.807 6.66406 79.7727 6.01785 78.684 5.74859H78.6296L78.5752 5.80244C78.2486 6.01785 77.8131 6.44865 77.5409 6.77176L77.4865 6.82561V6.87946C77.7586 7.90263 78.3574 8.97965 79.1739 9.84127C79.0651 9.94897 78.3574 10.8644 78.2486 11.026C77.2143 10.4336 76.0167 10.1105 74.9281 10.1644H74.8736L74.8192 10.2182C74.6015 10.5413 74.2748 11.026 74.1115 11.4568V11.5106L74.166 11.5645C74.7103 12.48 75.5813 13.3416 76.6155 13.9878C76.5611 14.1493 76.1256 15.1187 76.0712 15.2802C74.9281 15.011 73.6761 15.011 72.6418 15.2802H72.5874V15.3341C72.4241 15.711 72.2608 16.2495 72.2064 16.6803V16.7342L72.2608 16.788C73.0229 17.542 74.1115 18.1882 75.2547 18.4574C75.2547 18.619 75.0914 19.7498 75.0914 19.8575C73.8938 19.8575 72.6963 20.1807 71.7709 20.7192L71.7165 20.773V20.8269C71.7165 21.0423 71.662 21.2577 71.662 21.5269C71.662 21.7962 71.662 22.0116 71.7165 22.227V22.2808H71.7709C72.6963 22.8193 73.8938 23.1425 75.0914 23.1425C75.0914 23.304 75.2547 24.4349 75.3091 24.5964C74.166 24.9195 73.0773 25.5657 72.3152 26.3197L72.2608 26.4274V26.4812C72.3152 26.912 72.4785 27.5044 72.6418 27.8275V27.8813H72.6963C73.7305 28.2044 74.9825 28.1506 76.1256 27.8813C76.1801 28.0429 76.6155 29.0122 76.67 29.1738C75.6357 29.7661 74.7648 30.6277 74.2204 31.5971V31.7048C74.3837 32.0817 74.7103 32.5664 74.9281 32.8895L74.9825 32.9433H75.0369C76.1256 32.9433 77.3232 32.6202 78.3574 32.0817C78.4663 32.1894 79.1739 33.1049 79.2284 33.2126C78.4118 34.0204 77.7586 35.0974 77.4865 36.1744V36.2282L77.5409 36.2821C77.8131 36.6052 78.1941 37.036 78.5207 37.2514L78.5752 37.3053H78.6296C79.6638 37.036 80.7525 36.4436 81.6235 35.6359C81.7323 35.7436 82.6577 36.4436 82.821 36.5513C82.2767 37.5745 81.9501 38.7054 81.9501 39.7824V39.8901H82.0589C82.3855 40.1055 82.8754 40.4286 83.2565 40.5902H83.3109L83.3654 40.5363C84.2907 39.9978 85.1617 39.1362 85.8149 38.113C85.9782 38.1669 86.958 38.5977 87.1213 38.6515C86.958 39.19 86.9036 39.7824 86.9036 40.3209C86.9036 40.9133 86.958 41.5056 87.1213 41.9903V42.0441H87.1757C87.5568 42.2057 88.1011 42.3672 88.5366 42.4211H88.591L88.6455 42.3672C89.4075 41.6133 90.0607 40.5363 90.3329 39.4054C90.4962 39.4054 91.6393 39.567 91.8026 39.6208C91.8026 40.8056 92.1292 41.9903 92.6736 42.9058V42.9596H92.728C93.1091 43.0135 93.7623 43.0135 94.1433 42.9596H94.1977L94.2522 42.9058C94.7965 41.9903 95.1231 40.8056 95.1231 39.6208C95.2864 39.6208 96.3751 39.4593 96.5384 39.4054C96.865 40.5363 97.4638 41.6133 98.2803 42.3672L98.3347 42.4211H98.3892C98.8246 42.3672 99.4234 42.2057 99.75 42.0441H99.8045V41.9903C99.9678 41.4518 100.022 40.9133 100.022 40.3209C100.022 39.7286 99.9678 39.19 99.8045 38.5977C99.9678 38.5438 101.002 38.113 101.165 38.0053C101.764 39.0285 102.635 39.8901 103.615 40.4286H103.724C104.105 40.2671 104.649 39.9978 104.976 39.7285L105.03 39.6747C105.03 39.6747 105.03 39.567 105.03 39.5132C105.03 38.49 104.704 37.3053 104.159 36.3359C104.268 36.2282 105.139 35.582 105.248 35.4743C106.119 36.2821 107.153 36.9283 108.242 37.1976H108.296L108.351 37.1437C108.677 36.8745 109.113 36.4436 109.33 36.1744L109.385 36.1205V36.0667C109.113 35.0435 108.514 33.9665 107.697 33.1049C107.806 32.9972 108.514 32.0817 108.568 31.974C109.603 32.5664 110.8 32.8895 111.889 32.8356H111.943L111.998 32.7818C112.27 32.4587 112.542 31.974 112.705 31.5432V31.4894L112.651 31.4355C112.161 30.52 111.236 29.6584 110.256 29.0122C110.31 28.8507 110.746 27.8813 110.8 27.7198C111.943 27.989 113.195 28.0429 114.23 27.7198H114.284V27.6659C114.447 27.289 114.611 26.7505 114.665 26.3197V26.2658L114.611 26.212C113.848 25.458 112.76 24.8118 111.671 24.4887C111.671 24.3272 111.834 23.2502 111.889 23.0886C113.086 23.0886 114.284 22.7655 115.209 22.227L115.264 22.1731V22.1193C115.318 21.9039 115.318 21.6885 115.318 21.4192C115.209 21.3654 115.209 21.0961 115.209 20.9346ZM93.4357 37.5745C84.454 37.5745 77.1054 30.3585 77.1054 21.4192C77.1054 12.5338 84.3996 5.26393 93.4357 5.26393C102.417 5.26393 109.766 12.48 109.766 21.4192C109.766 30.3585 102.472 37.5745 93.4357 37.5745Z" fill="#F7A81B"/>
<path d="M93.4901 7.30189C85.5729 7.30189 79.0753 13.648 79.0753 21.5C79.0753 29.2982 85.5183 35.6981 93.4901 35.6981C101.407 35.6981 107.905 29.352 107.905 21.5C107.905 13.648 101.462 7.30189 93.4901 7.30189ZM95.3465 9.56068C95.5103 9.45312 95.6742 9.5069 95.838 9.5069C98.7318 10.206 100.861 11.3892 102.936 13.5405C103.1 13.7018 103.155 13.8631 103.155 13.9707V14.0245C103.1 14.2396 102.882 14.3472 102.663 14.4009L96.6024 17.3051C96.384 17.4127 96.1656 17.4127 95.9472 17.3051C95.7834 17.1975 95.6742 16.9824 95.6196 16.7673L95.1827 10.206C95.1827 9.88336 95.2373 9.66824 95.3465 9.56068ZM84.0987 13.648C86.1735 11.4968 88.303 10.3136 91.1968 9.61446C91.3606 9.56068 91.5791 9.56068 91.6883 9.66824C91.7975 9.7758 91.8521 9.93714 91.8521 10.2598L91.3606 16.8749C91.3606 17.1438 91.2514 17.3051 91.033 17.4127C90.8692 17.5202 90.6508 17.5202 90.3778 17.4127L84.3171 14.5085C84.0987 14.4009 83.8802 14.2934 83.8256 14.132C83.8256 13.9707 83.9349 13.8094 84.0987 13.648ZM82.6244 25.8562C82.3514 26.0176 82.1876 26.0714 82.0238 26.0176C81.86 25.9638 81.8054 25.8025 81.7508 25.5873C80.8772 22.7907 80.8772 20.3706 81.7508 17.5202C81.8054 17.2513 81.9146 17.1438 82.0784 17.09C82.2968 17.0362 82.4606 17.1438 82.679 17.3051L88.2484 21.016C88.4668 21.1773 88.576 21.3387 88.576 21.5538C88.576 21.7689 88.4668 21.9302 88.2484 22.0916L82.6244 25.8562ZM91.7975 33.6544C91.6883 33.762 91.4698 33.7082 91.306 33.7082C88.4122 33.0091 86.2827 31.8259 84.2079 29.6747C84.0441 29.5133 83.9894 29.4058 83.9894 29.2444V29.1906C84.0441 29.0293 84.2625 28.868 84.4263 28.8142L90.487 25.91C90.7054 25.8025 90.9784 25.8025 91.1422 25.91C91.306 26.0176 91.4152 26.1789 91.4698 26.4478L91.9613 33.0629C91.9613 33.3318 91.9067 33.5469 91.7975 33.6544ZM93.4901 25.3722C91.306 25.3722 89.5588 23.6512 89.5588 21.5C89.5588 20.2093 90.214 18.9723 91.306 18.2732C91.6882 18.058 92.1797 18.1118 92.3981 18.4883C92.6165 18.8647 92.5619 19.3488 92.1797 19.5639C91.5244 19.9941 91.1422 20.6933 91.1422 21.5C91.1422 22.7907 92.1797 23.8126 93.4901 23.8126C94.8005 23.8126 95.838 22.7907 95.838 21.5C95.838 20.6933 95.4557 19.9941 94.8005 19.5639C94.4183 19.3488 94.3091 18.8647 94.5821 18.4883C94.8005 18.1118 95.2919 18.0043 95.6741 18.2732C96.7662 18.9723 97.4214 20.2093 97.4214 21.5C97.4214 23.6512 95.6742 25.3722 93.4901 25.3722ZM102.936 29.5671C100.861 31.7183 98.7864 32.9015 95.838 33.6007C95.5649 33.6544 95.4011 33.6544 95.2919 33.5469C95.1281 33.4393 95.1827 33.1704 95.1827 32.9553L95.6741 26.3403C95.7288 26.0714 95.7834 25.91 96.0018 25.8025C96.1656 25.6949 96.384 25.6949 96.657 25.8025L102.718 28.7066C102.991 28.868 103.155 28.9755 103.155 29.1369C103.209 29.2982 103.045 29.4058 102.936 29.5671ZM104.956 17.1438C105.12 17.1975 105.175 17.3589 105.229 17.574C106.103 20.3706 106.103 22.7907 105.229 25.6411C105.175 25.91 105.066 26.0176 104.902 26.0714C104.738 26.1251 104.52 26.0176 104.356 25.8562L98.7864 22.1454C98.568 21.984 98.4588 21.8227 98.4588 21.6076C98.4588 21.3924 98.568 21.2311 98.7864 21.0698L104.356 17.3589C104.629 17.1438 104.847 17.09 104.956 17.1438Z" fill="#F7A81B"/>
<path d="M126.318 0H127.318V43H126.318V0Z" fill="#D9D9D9"/>
<path d="M146.326 24.4609C146.326 25.138 146.157 25.7161 145.818 26.1953C145.485 26.6693 145.016 27.0312 144.412 27.2812C143.808 27.5312 143.097 27.6562 142.279 27.6562C141.847 27.6562 141.438 27.6354 141.053 27.5938C140.667 27.5521 140.313 27.4922 139.99 27.4141C139.667 27.3359 139.383 27.2396 139.138 27.125V25.8516C139.529 26.013 140.006 26.1641 140.568 26.3047C141.131 26.4401 141.719 26.5078 142.334 26.5078C142.907 26.5078 143.391 26.4323 143.787 26.2812C144.183 26.125 144.482 25.9036 144.685 25.6172C144.894 25.3255 144.998 24.9766 144.998 24.5703C144.998 24.1797 144.912 23.8542 144.74 23.5938C144.568 23.3281 144.282 23.0885 143.881 22.875C143.485 22.6562 142.943 22.4245 142.256 22.1797C141.771 22.0078 141.344 21.8203 140.974 21.6172C140.605 21.4089 140.295 21.1745 140.045 20.9141C139.795 20.6536 139.605 20.3516 139.474 20.0078C139.349 19.6641 139.287 19.2708 139.287 18.8281C139.287 18.2188 139.441 17.6979 139.748 17.2656C140.06 16.8281 140.49 16.4948 141.037 16.2656C141.589 16.0312 142.222 15.9141 142.935 15.9141C143.545 15.9141 144.107 15.9714 144.623 16.0859C145.144 16.2005 145.62 16.3542 146.053 16.5469L145.638 17.6875C145.227 17.5156 144.79 17.3724 144.326 17.2578C143.868 17.1432 143.394 17.0859 142.904 17.0859C142.415 17.0859 142 17.1589 141.662 17.3047C141.329 17.4453 141.073 17.6458 140.896 17.9062C140.719 18.1667 140.631 18.4766 140.631 18.8359C140.631 19.237 140.714 19.5703 140.881 19.8359C141.053 20.1016 141.323 20.3385 141.693 20.5469C142.068 20.75 142.563 20.9635 143.178 21.1875C143.849 21.4323 144.42 21.6927 144.888 21.9688C145.357 22.2396 145.714 22.5729 145.959 22.9688C146.204 23.3594 146.326 23.8568 146.326 24.4609Z" fill="#0050A2"/>
<path d="M151.763 18.7812C152.493 18.7812 153.118 18.9427 153.638 19.2656C154.159 19.5885 154.558 20.0417 154.834 20.625C155.11 21.2031 155.248 21.8802 155.248 22.6562V23.4609H149.334C149.349 24.4661 149.599 25.2318 150.084 25.7578C150.568 26.2839 151.25 26.5469 152.131 26.5469C152.672 26.5469 153.152 26.4974 153.568 26.3984C153.985 26.2995 154.417 26.1536 154.865 25.9609V27.1016C154.433 27.2943 154.003 27.4349 153.576 27.5234C153.154 27.612 152.654 27.6562 152.076 27.6562C151.253 27.6562 150.534 27.4896 149.92 27.1562C149.31 26.8177 148.836 26.3229 148.498 25.6719C148.159 25.0208 147.99 24.224 147.99 23.2812C147.99 22.3594 148.144 21.5625 148.451 20.8906C148.763 20.2135 149.201 19.6927 149.763 19.3281C150.331 18.9635 150.998 18.7812 151.763 18.7812ZM151.748 19.8438C151.055 19.8438 150.503 20.0703 150.092 20.5234C149.68 20.9766 149.435 21.6094 149.357 22.4219H153.888C153.883 21.9115 153.803 21.4635 153.646 21.0781C153.495 20.6875 153.263 20.3854 152.951 20.1719C152.638 19.9531 152.237 19.8438 151.748 19.8438Z" fill="#0050A2"/>
<path d="M161.342 18.7812C161.513 18.7812 161.693 18.7917 161.881 18.8125C162.068 18.8281 162.235 18.8516 162.381 18.8828L162.217 20.0859C162.076 20.0495 161.92 20.0208 161.748 20C161.576 19.9792 161.415 19.9688 161.263 19.9688C160.92 19.9688 160.594 20.0391 160.287 20.1797C159.985 20.3151 159.719 20.513 159.49 20.7734C159.261 21.0286 159.081 21.3385 158.951 21.7031C158.821 22.0625 158.756 22.4635 158.756 22.9062V27.5H157.451V18.9375H158.529L158.67 20.5156H158.724C158.902 20.1979 159.115 19.9089 159.365 19.6484C159.615 19.3828 159.904 19.1719 160.232 19.0156C160.566 18.8594 160.935 18.7812 161.342 18.7812Z" fill="#0050A2"/>
<path d="M165.881 27.5L162.631 18.9375H164.021L165.904 24.1172C166.034 24.4714 166.167 24.862 166.303 25.2891C166.438 25.7161 166.532 26.0599 166.584 26.3203H166.638C166.701 26.0599 166.805 25.7161 166.951 25.2891C167.097 24.8568 167.23 24.4661 167.349 24.1172L169.232 18.9375H170.623L167.365 27.5H165.881Z" fill="#0050A2"/>
<path d="M173.295 18.9375V27.5H171.998V18.9375H173.295ZM172.662 15.7344C172.875 15.7344 173.058 15.8047 173.209 15.9453C173.365 16.0807 173.443 16.2943 173.443 16.5859C173.443 16.8724 173.365 17.0859 173.209 17.2266C173.058 17.3672 172.875 17.4375 172.662 17.4375C172.438 17.4375 172.25 17.3672 172.099 17.2266C171.954 17.0859 171.881 16.8724 171.881 16.5859C171.881 16.2943 171.954 16.0807 172.099 15.9453C172.25 15.8047 172.438 15.7344 172.662 15.7344Z" fill="#0050A2"/>
<path d="M179.474 27.6562C178.704 27.6562 178.024 27.4974 177.435 27.1797C176.847 26.862 176.388 26.3776 176.06 25.7266C175.732 25.0755 175.568 24.2552 175.568 23.2656C175.568 22.2292 175.74 21.3828 176.084 20.7266C176.433 20.0651 176.912 19.5755 177.521 19.2578C178.131 18.9401 178.823 18.7812 179.599 18.7812C180.027 18.7812 180.438 18.8255 180.834 18.9141C181.235 18.9974 181.563 19.1042 181.818 19.2344L181.428 20.3203C181.167 20.2161 180.865 20.1224 180.521 20.0391C180.183 19.9557 179.865 19.9141 179.568 19.9141C178.974 19.9141 178.48 20.0417 178.084 20.2969C177.693 20.5521 177.399 20.9271 177.201 21.4219C177.008 21.9167 176.912 22.526 176.912 23.25C176.912 23.9427 177.006 24.5339 177.193 25.0234C177.386 25.513 177.67 25.888 178.045 26.1484C178.425 26.4036 178.899 26.5312 179.467 26.5312C179.92 26.5312 180.329 26.4844 180.693 26.3906C181.058 26.2917 181.388 26.1771 181.685 26.0469V27.2031C181.399 27.349 181.079 27.4609 180.724 27.5391C180.375 27.6172 179.959 27.6562 179.474 27.6562Z" fill="#0050A2"/>
<path d="M187.013 18.7812C187.743 18.7812 188.368 18.9427 188.888 19.2656C189.409 19.5885 189.808 20.0417 190.084 20.625C190.36 21.2031 190.498 21.8802 190.498 22.6562V23.4609H184.584C184.599 24.4661 184.849 25.2318 185.334 25.7578C185.818 26.2839 186.5 26.5469 187.381 26.5469C187.922 26.5469 188.402 26.4974 188.818 26.3984C189.235 26.2995 189.667 26.1536 190.115 25.9609V27.1016C189.683 27.2943 189.253 27.4349 188.826 27.5234C188.404 27.612 187.904 27.6562 187.326 27.6562C186.503 27.6562 185.784 27.4896 185.17 27.1562C184.56 26.8177 184.086 26.3229 183.748 25.6719C183.409 25.0208 183.24 24.224 183.24 23.2812C183.24 22.3594 183.394 21.5625 183.701 20.8906C184.013 20.2135 184.451 19.6927 185.013 19.3281C185.581 18.9635 186.248 18.7812 187.013 18.7812ZM186.998 19.8438C186.305 19.8438 185.753 20.0703 185.342 20.5234C184.93 20.9766 184.685 21.6094 184.607 22.4219H189.138C189.133 21.9115 189.053 21.4635 188.896 21.0781C188.745 20.6875 188.513 20.3854 188.201 20.1719C187.888 19.9531 187.487 19.8438 186.998 19.8438Z" fill="#0050A2"/>
<path d="M200.037 16.0781C201.511 16.0781 202.586 16.3672 203.263 16.9453C203.946 17.5182 204.287 18.3411 204.287 19.4141C204.287 19.8984 204.206 20.3594 204.045 20.7969C203.888 21.2292 203.633 21.612 203.279 21.9453C202.925 22.2734 202.459 22.5339 201.881 22.7266C201.308 22.9141 200.605 23.0078 199.771 23.0078H198.381V27.5H197.053V16.0781H200.037ZM199.912 17.2109H198.381V21.8672H199.623C200.352 21.8672 200.959 21.7891 201.443 21.6328C201.933 21.4766 202.3 21.224 202.545 20.875C202.79 20.5208 202.912 20.0521 202.912 19.4688C202.912 18.7083 202.67 18.1432 202.185 17.7734C201.701 17.3984 200.943 17.2109 199.912 17.2109Z" fill="#0050A2"/>
<path d="M210.373 18.7812C210.545 18.7812 210.724 18.7917 210.912 18.8125C211.099 18.8281 211.266 18.8516 211.412 18.8828L211.248 20.0859C211.107 20.0495 210.951 20.0208 210.779 20C210.607 19.9792 210.446 19.9688 210.295 19.9688C209.951 19.9688 209.625 20.0391 209.318 20.1797C209.016 20.3151 208.75 20.513 208.521 20.7734C208.292 21.0286 208.112 21.3385 207.982 21.7031C207.852 22.0625 207.787 22.4635 207.787 22.9062V27.5H206.482V18.9375H207.56L207.701 20.5156H207.756C207.933 20.1979 208.146 19.9089 208.396 19.6484C208.646 19.3828 208.935 19.1719 209.263 19.0156C209.597 18.8594 209.967 18.7812 210.373 18.7812Z" fill="#0050A2"/>
<path d="M220.412 23.2031C220.412 23.9062 220.321 24.5339 220.138 25.0859C219.956 25.638 219.693 26.1042 219.349 26.4844C219.006 26.8646 218.589 27.1562 218.099 27.3594C217.615 27.5573 217.066 27.6562 216.451 27.6562C215.878 27.6562 215.352 27.5573 214.873 27.3594C214.399 27.1562 213.987 26.8646 213.638 26.4844C213.295 26.1042 213.027 25.638 212.834 25.0859C212.646 24.5339 212.553 23.9062 212.553 23.2031C212.553 22.2656 212.711 21.4688 213.029 20.8125C213.347 20.151 213.8 19.6484 214.388 19.3047C214.982 18.9557 215.688 18.7812 216.506 18.7812C217.287 18.7812 217.969 18.9557 218.553 19.3047C219.141 19.6536 219.597 20.1589 219.92 20.8203C220.248 21.4766 220.412 22.2708 220.412 23.2031ZM213.896 23.2031C213.896 23.8906 213.987 24.487 214.17 24.9922C214.352 25.4974 214.633 25.888 215.013 26.1641C215.394 26.4401 215.883 26.5781 216.482 26.5781C217.076 26.5781 217.563 26.4401 217.943 26.1641C218.329 25.888 218.612 25.4974 218.795 24.9922C218.977 24.487 219.068 23.8906 219.068 23.2031C219.068 22.5208 218.977 21.9323 218.795 21.4375C218.612 20.9375 218.331 20.5521 217.951 20.2812C217.571 20.0104 217.079 19.875 216.474 19.875C215.584 19.875 214.93 20.1693 214.513 20.7578C214.102 21.3464 213.896 22.1615 213.896 23.2031Z" fill="#0050A2"/>
<path d="M221.623 31.3438C221.357 31.3438 221.125 31.3229 220.928 31.2812C220.73 31.2448 220.558 31.2005 220.412 31.1484V30.0938C220.573 30.1458 220.737 30.1849 220.904 30.2109C221.071 30.2422 221.258 30.2578 221.467 30.2578C221.821 30.2578 222.107 30.1589 222.326 29.9609C222.545 29.763 222.654 29.4036 222.654 28.8828V18.9375H223.951V28.8516C223.951 29.3724 223.868 29.8177 223.701 30.1875C223.534 30.5625 223.279 30.849 222.935 31.0469C222.592 31.2448 222.154 31.3438 221.623 31.3438ZM222.537 16.5859C222.537 16.2943 222.61 16.0807 222.756 15.9453C222.907 15.8047 223.094 15.7344 223.318 15.7344C223.532 15.7344 223.714 15.8047 223.865 15.9453C224.021 16.0807 224.099 16.2943 224.099 16.5859C224.099 16.8724 224.021 17.0859 223.865 17.2266C223.714 17.3672 223.532 17.4375 223.318 17.4375C223.094 17.4375 222.907 17.3672 222.756 17.2266C222.61 17.0859 222.537 16.8724 222.537 16.5859Z" fill="#0050A2"/>
<path d="M229.998 18.7812C230.727 18.7812 231.352 18.9427 231.873 19.2656C232.394 19.5885 232.792 20.0417 233.068 20.625C233.344 21.2031 233.482 21.8802 233.482 22.6562V23.4609H227.568C227.584 24.4661 227.834 25.2318 228.318 25.7578C228.803 26.2839 229.485 26.5469 230.365 26.5469C230.907 26.5469 231.386 26.4974 231.803 26.3984C232.219 26.2995 232.652 26.1536 233.099 25.9609V27.1016C232.667 27.2943 232.237 27.4349 231.81 27.5234C231.388 27.612 230.888 27.6562 230.31 27.6562C229.487 27.6562 228.769 27.4896 228.154 27.1562C227.545 26.8177 227.071 26.3229 226.732 25.6719C226.394 25.0208 226.224 24.224 226.224 23.2812C226.224 22.3594 226.378 21.5625 226.685 20.8906C226.998 20.2135 227.435 19.6927 227.998 19.3281C228.566 18.9635 229.232 18.7812 229.998 18.7812ZM229.982 19.8438C229.29 19.8438 228.737 20.0703 228.326 20.5234C227.915 20.9766 227.67 21.6094 227.592 22.4219H232.123C232.118 21.9115 232.037 21.4635 231.881 21.0781C231.73 20.6875 231.498 20.3854 231.185 20.1719C230.873 19.9531 230.472 19.8438 229.982 19.8438Z" fill="#0050A2"/>
<path d="M239.115 27.6562C238.344 27.6562 237.665 27.4974 237.076 27.1797C236.487 26.862 236.029 26.3776 235.701 25.7266C235.373 25.0755 235.209 24.2552 235.209 23.2656C235.209 22.2292 235.381 21.3828 235.724 20.7266C236.073 20.0651 236.553 19.5755 237.162 19.2578C237.771 18.9401 238.464 18.7812 239.24 18.7812C239.667 18.7812 240.079 18.8255 240.474 18.9141C240.875 18.9974 241.204 19.1042 241.459 19.2344L241.068 20.3203C240.808 20.2161 240.506 20.1224 240.162 20.0391C239.823 19.9557 239.506 19.9141 239.209 19.9141C238.615 19.9141 238.12 20.0417 237.724 20.2969C237.334 20.5521 237.04 20.9271 236.842 21.4219C236.649 21.9167 236.553 22.526 236.553 23.25C236.553 23.9427 236.646 24.5339 236.834 25.0234C237.027 25.513 237.31 25.888 237.685 26.1484C238.066 26.4036 238.54 26.5312 239.107 26.5312C239.56 26.5312 239.969 26.4844 240.334 26.3906C240.698 26.2917 241.029 26.1771 241.326 26.0469V27.2031C241.04 27.349 240.719 27.4609 240.365 27.5391C240.016 27.6172 239.599 27.6562 239.115 27.6562Z" fill="#0050A2"/>
<path d="M246.123 26.5938C246.336 26.5938 246.555 26.5755 246.779 26.5391C247.003 26.5026 247.185 26.4583 247.326 26.4062V27.4141C247.175 27.4818 246.964 27.5391 246.693 27.5859C246.428 27.6328 246.167 27.6562 245.912 27.6562C245.459 27.6562 245.047 27.5781 244.678 27.4219C244.308 27.2604 244.011 26.9896 243.787 26.6094C243.568 26.2292 243.459 25.7031 243.459 25.0312V19.9531H242.24V19.3203L243.467 18.8125L243.982 16.9531H244.763V18.9375H247.271V19.9531H244.763V24.9922C244.763 25.5286 244.886 25.9297 245.131 26.1953C245.381 26.4609 245.711 26.5938 246.123 26.5938Z" fill="#0050A2"/>
<path d="M258.295 17.0859C257.665 17.0859 257.097 17.1953 256.592 17.4141C256.092 17.6276 255.665 17.9401 255.31 18.3516C254.961 18.7578 254.693 19.25 254.506 19.8281C254.318 20.4062 254.224 21.0573 254.224 21.7812C254.224 22.7396 254.373 23.5729 254.67 24.2812C254.972 24.9844 255.42 25.5286 256.013 25.9141C256.612 26.2995 257.36 26.4922 258.256 26.4922C258.766 26.4922 259.245 26.4505 259.693 26.3672C260.146 26.2786 260.586 26.1693 261.013 26.0391V27.1953C260.597 27.3516 260.159 27.4661 259.701 27.5391C259.243 27.6172 258.698 27.6562 258.068 27.6562C256.907 27.6562 255.935 27.4167 255.154 26.9375C254.378 26.4531 253.795 25.7708 253.404 24.8906C253.019 24.0104 252.826 22.9714 252.826 21.7734C252.826 20.9089 252.946 20.1198 253.185 19.4062C253.43 18.6875 253.784 18.0677 254.248 17.5469C254.717 17.026 255.29 16.625 255.967 16.3438C256.649 16.0573 257.43 15.9141 258.31 15.9141C258.888 15.9141 259.446 15.9714 259.982 16.0859C260.519 16.2005 261.003 16.3646 261.435 16.5781L260.904 17.7031C260.54 17.5365 260.138 17.3932 259.701 17.2734C259.269 17.1484 258.8 17.0859 258.295 17.0859Z" fill="#0050A2"/>
<path d="M266.592 18.7812C267.321 18.7812 267.946 18.9427 268.467 19.2656C268.987 19.5885 269.386 20.0417 269.662 20.625C269.938 21.2031 270.076 21.8802 270.076 22.6562V23.4609H264.162C264.178 24.4661 264.428 25.2318 264.912 25.7578C265.396 26.2839 266.079 26.5469 266.959 26.5469C267.5 26.5469 267.98 26.4974 268.396 26.3984C268.813 26.2995 269.245 26.1536 269.693 25.9609V27.1016C269.261 27.2943 268.831 27.4349 268.404 27.5234C267.982 27.612 267.482 27.6562 266.904 27.6562C266.081 27.6562 265.362 27.4896 264.748 27.1562C264.138 26.8177 263.665 26.3229 263.326 25.6719C262.987 25.0208 262.818 24.224 262.818 23.2812C262.818 22.3594 262.972 21.5625 263.279 20.8906C263.592 20.2135 264.029 19.6927 264.592 19.3281C265.159 18.9635 265.826 18.7812 266.592 18.7812ZM266.576 19.8438C265.883 19.8438 265.331 20.0703 264.92 20.5234C264.508 20.9766 264.263 21.6094 264.185 22.4219H268.717C268.711 21.9115 268.631 21.4635 268.474 21.0781C268.323 20.6875 268.092 20.3854 267.779 20.1719C267.467 19.9531 267.066 19.8438 266.576 19.8438Z" fill="#0050A2"/>
<path d="M276.334 18.7812C277.349 18.7812 278.118 19.0312 278.638 19.5312C279.159 20.026 279.42 20.8229 279.42 21.9219V27.5H278.138V22.0078C278.138 21.2943 277.974 20.7604 277.646 20.4062C277.323 20.0521 276.826 19.875 276.154 19.875C275.206 19.875 274.54 20.1432 274.154 20.6797C273.769 21.2161 273.576 21.9948 273.576 23.0156V27.5H272.279V18.9375H273.326L273.521 20.1719H273.592C273.774 19.8698 274.006 19.6172 274.287 19.4141C274.568 19.2057 274.883 19.0495 275.232 18.9453C275.581 18.8359 275.948 18.7812 276.334 18.7812Z" fill="#0050A2"/>
<path d="M284.857 26.5938C285.071 26.5938 285.29 26.5755 285.513 26.5391C285.737 26.5026 285.92 26.4583 286.06 26.4062V27.4141C285.909 27.4818 285.698 27.5391 285.428 27.5859C285.162 27.6328 284.902 27.6562 284.646 27.6562C284.193 27.6562 283.782 27.5781 283.412 27.4219C283.042 27.2604 282.745 26.9896 282.521 26.6094C282.303 26.2292 282.193 25.7031 282.193 25.0312V19.9531H280.974V19.3203L282.201 18.8125L282.717 16.9531H283.498V18.9375H286.006V19.9531H283.498V24.9922C283.498 25.5286 283.62 25.9297 283.865 26.1953C284.115 26.4609 284.446 26.5938 284.857 26.5938Z" fill="#0050A2"/>
<path d="M291.092 18.7812C291.821 18.7812 292.446 18.9427 292.967 19.2656C293.487 19.5885 293.886 20.0417 294.162 20.625C294.438 21.2031 294.576 21.8802 294.576 22.6562V23.4609H288.662C288.678 24.4661 288.928 25.2318 289.412 25.7578C289.896 26.2839 290.579 26.5469 291.459 26.5469C292 26.5469 292.48 26.4974 292.896 26.3984C293.313 26.2995 293.745 26.1536 294.193 25.9609V27.1016C293.761 27.2943 293.331 27.4349 292.904 27.5234C292.482 27.612 291.982 27.6562 291.404 27.6562C290.581 27.6562 289.862 27.4896 289.248 27.1562C288.638 26.8177 288.165 26.3229 287.826 25.6719C287.487 25.0208 287.318 24.224 287.318 23.2812C287.318 22.3594 287.472 21.5625 287.779 20.8906C288.092 20.2135 288.529 19.6927 289.092 19.3281C289.659 18.9635 290.326 18.7812 291.092 18.7812ZM291.076 19.8438C290.383 19.8438 289.831 20.0703 289.42 20.5234C289.008 20.9766 288.763 21.6094 288.685 22.4219H293.217C293.211 21.9115 293.131 21.4635 292.974 21.0781C292.823 20.6875 292.592 20.3854 292.279 20.1719C291.967 19.9531 291.566 19.8438 291.076 19.8438Z" fill="#0050A2"/>
<path d="M300.67 18.7812C300.842 18.7812 301.021 18.7917 301.209 18.8125C301.396 18.8281 301.563 18.8516 301.709 18.8828L301.545 20.0859C301.404 20.0495 301.248 20.0208 301.076 20C300.904 19.9792 300.743 19.9688 300.592 19.9688C300.248 19.9688 299.922 20.0391 299.615 20.1797C299.313 20.3151 299.047 20.513 298.818 20.7734C298.589 21.0286 298.409 21.3385 298.279 21.7031C298.149 22.0625 298.084 22.4635 298.084 22.9062V27.5H296.779V18.9375H297.857L297.998 20.5156H298.053C298.23 20.1979 298.443 19.9089 298.693 19.6484C298.943 19.3828 299.232 19.1719 299.56 19.0156C299.894 18.8594 300.263 18.7812 300.67 18.7812Z" fill="#0050A2"/>
</svg>
